<?xml version="1.0" encoding="UTF-8"?>
<svg width="240" height="48" viewBox="0 0 240 48" fill="none" xmlns="http://www.w3.org/2000/svg">
  <defs>
    <linearGradient id="goldGradient" x1="0%" y1="0%" x2="100%" y2="0%">
      <stop offset="0%" stop-color="#C7AE6A" />
      <stop offset="50%" stop-color="#d5c28f" />
      <stop offset="100%" stop-color="#b99a45" />
    </linearGradient>
  </defs>
  <path d="M12.7 9.85C17.1667 9.85 20.7167 10.9667 23.35 13.2C25.9833 15.4333 27.3 18.5167 27.3 22.45C27.3 26.3833 25.9833 29.4667 23.35 31.7C20.7167 33.9333 17.1667 35.05 12.7 35.05H4V9.85H12.7ZM12.55 29.85C14.9833 29.85 16.8333 29.2667 18.1 28.1C19.3667 26.9333 20 25.0667 20 22.5C20 19.9333 19.3667 18.0667 18.1 16.9C16.8333 15.7333 14.9833 15.15 12.55 15.15H11.15V29.85H12.55Z" fill="url(#goldGradient)"/>
  <path d="M44.4969 35.45C41.2969 35.45 38.6802 34.4 36.6469 32.3C34.6469 30.1667 33.6469 27.4833 33.6469 24.25C33.6469 21.0167 34.6469 18.35 36.6469 16.25C38.6802 14.15 41.2969 13.1 44.4969 13.1C47.6969 13.1 50.2969 14.15 52.2969 16.25C54.3302 18.35 55.3469 21.0167 55.3469 24.25C55.3469 27.4833 54.3302 30.1667 52.2969 32.3C50.2969 34.4 47.6969 35.45 44.4969 35.45ZM44.4969 30.05C45.9302 30.05 47.0802 29.5 47.9469 28.4C48.8469 27.2667 49.2969 25.85 49.2969 24.15C49.2969 22.45 48.8469 21.05 47.9469 19.95C47.0802 18.85 45.9302 18.3 44.4969 18.3C43.0635 18.3 41.8969 18.85 40.9969 19.95C40.1302 21.05 39.6969 22.45 39.6969 24.15C39.6969 25.85 40.1302 27.2667 40.9969 28.4C41.8969 29.5 43.0635 30.05 44.4969 30.05Z" fill="url(#goldGradient)"/>
  <path d="M71.6938 13.1C74.2271 13.1 76.2938 13.9333 77.8938 15.6C79.5271 17.2667 80.3438 19.5333 80.3438 22.4V35H74.3438V23.5C74.3438 22 73.9938 20.8333 73.2938 20C72.5938 19.1333 71.6271 18.7 70.3938 18.7C69.1271 18.7 68.1438 19.1333 67.4438 20C66.7438 20.8333 66.3938 22 66.3938 23.5V35H60.3938V13.5H66.3938V16.25C67.0604 15.3167 67.9271 14.6 68.9938 14.1C70.0604 13.5667 71.2271 13.3 72.4938 13.3L71.6938 13.1Z" fill="url(#goldGradient)"/>
  <path d="M95.8406 13.1C98.3739 13.1 100.441 13.9333 102.041 15.6C103.674 17.2667 104.491 19.5333 104.491 22.4V35H98.4906V23.5C98.4906 22 98.1406 20.8333 97.4406 20C96.7406 19.1333 95.7739 18.7 94.5406 18.7C93.2739 18.7 92.2906 19.1333 91.5906 20C90.8906 20.8333 90.5406 22 90.5406 23.5V35H84.5406V6H90.5406V16.25C91.2073 15.3167 92.0739 14.6 93.1406 14.1C94.2073 13.5667 95.3739 13.3 96.6406 13.3L95.8406 13.1Z" fill="url(#goldGradient)"/>
  <path d="M118.687 35.45C116.587 35.45 114.687 35.05 112.987 34.25C111.321 33.45 110.004 32.3 109.037 30.8C108.071 29.3 107.587 27.55 107.587 25.55C107.587 23.55 108.071 21.8 109.037 20.3C110.004 18.8 111.321 17.65 112.987 16.85C114.687 16.05 116.587 15.65 118.687 15.65C120.787 15.65 122.671 16.05 124.337 16.85C126.004 17.65 127.321 18.8 128.287 20.3C129.254 21.8 129.737 23.55 129.737 25.55C129.737 27.55 129.254 29.3 128.287 30.8C127.321 32.3 126.004 33.45 124.337 34.25C122.671 35.05 120.787 35.45 118.687 35.45ZM118.687 30.45C120.021 30.45 121.104 30 121.937 29.1C122.804 28.2 123.237 27 123.237 25.5C123.237 24 122.804 22.8 121.937 21.9C121.104 21 120.021 20.55 118.687 20.55C117.354 20.55 116.254 21 115.387 21.9C114.554 22.8 114.137 24 114.137 25.5C114.137 27 114.554 28.2 115.387 29.1C116.254 30 117.354 30.45 118.687 30.45Z" fill="url(#goldGradient)"/>
  <path d="M145.484 13.1C148.018 13.1 150.084 13.9333 151.684 15.6C153.318 17.2667 154.134 19.5333 154.134 22.4V35H148.134V23.5C148.134 22 147.784 20.8333 147.084 20C146.384 19.1333 145.418 18.7 144.184 18.7C142.918 18.7 141.934 19.1333 141.234 20C140.534 20.8333 140.184 22 140.184 23.5V35H134.184V13.5H140.184V16.25C140.851 15.3167 141.718 14.6 142.784 14.1C143.851 13.5667 145.018 13.3 146.284 13.3L145.484 13.1Z" fill="url(#goldGradient)"/>
  <path d="M172.931 19.55C172.931 18.2167 172.481 17.1833 171.581 16.45C170.715 15.7167 169.498 15.35 167.931 15.35C166.698 15.35 165.748 15.5833 165.081 16.05C164.415 16.5167 164.081 17.1333 164.081 17.9C164.081 18.6 164.348 19.15 164.881 19.55C165.448 19.9167 166.215 20.2167 167.181 20.45C168.181 20.65 169.331 20.8667 170.631 21.1C172.331 21.4 173.781 21.7667 174.981 22.2C176.215 22.6333 177.215 23.3167 177.981 24.25C178.748 25.15 179.131 26.4 179.131 28C179.131 30.2667 178.215 32.0333 176.381 33.3C174.548 34.5333 171.998 35.15 168.731 35.15C165.531 35.15 162.965 34.5167 161.031 33.25C159.131 31.9833 158.131 30.1 158.031 27.6H164.231C164.331 28.8 164.798 29.7167 165.631 30.35C166.498 30.95 167.581 31.25 168.881 31.25C170.181 31.25 171.181 31.0167 171.881 30.55C172.615 30.05 172.981 29.4167 172.981 28.65C172.981 27.95 172.698 27.4 172.131 27C171.598 26.5667 170.831 26.25 169.831 26.05C168.865 25.8167 167.715 25.5833 166.381 25.35C164.748 25.05 163.331 24.7 162.131 24.3C160.931 23.9 159.965 23.25 159.231 22.35C158.498 21.45 158.131 20.2 158.131 18.6C158.131 16.3333 159.048 14.5667 160.881 13.3C162.715 12.0333 165.215 11.4 168.381 11.4C171.515 11.4 173.965 12.0333 175.731 13.3C177.531 14.5667 178.515 16.3667 178.681 18.7H172.931V19.55Z" fill="url(#goldGradient)"/>
</svg>